<svg width="145" height="38" viewBox="0 0 145 38" fill="none" xmlns="http://www.w3.org/2000/svg">
<g clip-path="url(#clip0_54_4442)">
<path d="M53.2129 30.3154V7.68461H58.9319V10.1482H59.7617C60.1611 9.38802 60.8224 8.72708 61.7447 8.16345C62.667 7.60079 63.8815 7.31946 65.3883 7.31946C67.0177 7.31946 68.3247 7.63162 69.3094 8.25498C70.2931 8.87834 71.0459 9.69247 71.569 10.6964H72.3988C72.9218 9.7233 73.6591 8.91688 74.6126 8.2781C75.5651 7.63933 76.9189 7.31946 78.672 7.31946C80.0862 7.31946 81.3698 7.6162 82.523 8.20874C83.6761 8.80223 84.5985 9.69921 85.29 10.9007C85.9815 12.1031 86.3282 13.6157 86.3282 15.4405V30.3154H80.5166V15.8519C80.5166 14.6052 80.1933 13.6697 79.5476 13.0453C78.9018 12.422 77.9941 12.1098 76.8263 12.1098C75.5037 12.1098 74.4811 12.5279 73.7594 13.3642C73.0367 14.2015 72.6754 15.3943 72.6754 16.9464V30.3154H66.8638V15.8519C66.8638 14.6052 66.5404 13.6697 65.8947 13.0453C65.249 12.422 64.3413 12.1098 63.1735 12.1098C61.8509 12.1098 60.8282 12.5279 60.1065 13.3642C59.3838 14.2015 59.0225 15.3943 59.0225 16.9464V30.3154H53.2109H53.2129Z" fill="#E42525"/>
<path d="M93.965 11.3987L98.415 11.3852V7.68457H92.6024V30.3154H98.415V16.1515C98.415 15.1803 97.8793 14.2872 97.0173 13.8228L94.0078 12.1984C93.9903 11.7966 93.9747 11.7215 93.965 11.3997V11.3987Z" fill="#E42525"/>
<path d="M104.871 30.3154V7.68455H110.591V10.2397H111.421C111.759 9.32725 112.32 8.65861 113.105 8.23179C113.889 7.80594 114.804 7.59302 115.85 7.59302H118.618V12.7032H115.758C114.282 12.7032 113.067 13.0915 112.115 13.8671C111.161 14.6427 110.685 15.8374 110.685 17.4493V30.3163H104.873L104.871 30.3154Z" fill="#E42525"/>
<path d="M129.686 30.9541C128.056 30.9541 126.596 30.6728 125.305 30.1101C124.013 29.5475 122.991 28.7266 122.238 27.6466C121.484 26.5675 121.108 25.2514 121.108 23.7002C121.108 22.149 121.484 20.8484 122.238 19.7992C122.991 18.7499 124.037 17.9589 125.374 17.4261C126.711 16.8943 128.241 16.6274 129.963 16.6274H136.236V15.3499C136.236 14.2852 135.898 13.4104 135.221 12.7264C134.545 12.0423 133.468 11.6993 131.993 11.6993C130.517 11.6993 129.471 12.0269 128.764 12.6801C128.056 13.3343 127.595 14.1783 127.38 15.2121L122.03 13.4326C122.399 12.2764 122.991 11.2195 123.806 10.2618C124.62 9.30317 125.712 8.52758 127.08 7.93505C128.448 7.34156 130.117 7.04578 132.085 7.04578C135.099 7.04578 137.482 7.7915 139.235 9.28198C140.987 10.7725 141.864 12.9325 141.864 15.7613V24.2022C141.864 25.1146 142.294 25.5713 143.155 25.5713H145V30.3163H141.126C139.988 30.3163 139.05 30.0427 138.312 29.4955C137.574 28.9482 137.204 28.2179 137.204 27.3055V27.2602H136.328C136.204 27.6254 135.928 28.1042 135.498 28.6977C135.067 29.2912 134.391 29.8153 133.468 30.272C132.546 30.7287 131.285 30.9561 129.686 30.9561V30.9541ZM130.701 26.2996C132.331 26.2996 133.661 25.8516 134.692 24.9537C135.721 24.0567 136.236 22.863 136.236 21.3715V20.9148H130.379C129.302 20.9148 128.456 21.1432 127.842 21.5989C127.226 22.0556 126.919 22.6944 126.919 23.5152C126.919 24.3361 127.243 25.0057 127.889 25.5231C128.534 26.0405 129.472 26.2987 130.702 26.2987L130.701 26.2996Z" fill="#E42525"/>
<path d="M39.9164 30.5755L37.0822 8.00445C36.6955 4.92715 34.1983 2.52909 31.0768 2.23908L7.30749 0.029859C3.05522 -0.365161 -0.474381 3.23241 0.0525269 7.42445L2.88673 29.9955C3.27339 33.0728 5.7706 35.4709 8.89211 35.7609L32.6624 37.9701C36.9137 38.3651 40.4443 34.7676 39.9173 30.5755H39.9164ZM11.851 28.9675C10.2284 28.9675 8.859 27.7709 8.65934 26.1783L6.95492 12.606C6.71631 10.7079 8.21327 9.03247 10.1466 9.03247C11.7692 9.03247 13.1385 10.2291 13.3382 11.8217L15.0426 25.394C15.2812 27.292 13.7843 28.9675 11.851 28.9675V28.9675ZM20.8357 28.9675C19.2131 28.9675 17.8437 27.7709 17.644 26.1783L15.9396 12.606C15.701 10.7079 17.198 9.03247 19.1313 9.03247C20.7539 9.03247 22.1232 10.2291 22.3229 11.8217L24.0273 25.394C24.2659 27.292 22.769 28.9675 20.8357 28.9675V28.9675ZM29.8214 28.9675C28.1988 28.9675 26.8294 27.7709 26.6297 26.1783L24.9253 12.606C24.6867 10.7079 26.1837 9.03247 28.1169 9.03247C29.7396 9.03247 31.1089 10.2291 31.3086 11.8217L33.013 25.394C33.2516 27.292 31.7547 28.9675 29.8214 28.9675V28.9675Z" fill="#E42525"/>
</g>
<defs>
<clipPath id="clip0_54_4442">
<rect width="145" height="38" fill="white"/>
</clipPath>
</defs>
</svg>
