<svg width="67" height="64" viewBox="0 0 67 64" fill="none" xmlns="http://www.w3.org/2000/svg">
<path d="M66.5036 51.4959L61.7824 13.4822C61.1389 8.29944 56.978 4.26074 51.7771 3.77197L12.1749 0.0500737C5.09135 -0.615197 -0.790187 5.44465 0.086885 12.5047L4.80805 50.5184C5.4516 55.7011 9.61248 59.7398 14.8134 60.2286L54.4165 63.9505C61.5 64.6158 67.3816 58.5568 66.5045 51.4959H66.5036ZM19.7445 48.7878C17.04 48.7878 14.76 46.7729 14.4269 44.0892L11.5875 21.231C11.1901 18.0341 13.6838 15.2119 16.9051 15.2119C19.6097 15.2119 21.8897 17.2267 22.2228 19.9105L25.0622 42.7686C25.4595 45.9656 22.9659 48.7878 19.7445 48.7878ZM34.7145 48.7878C32.0099 48.7878 29.7299 46.7729 29.3968 44.0892L26.5574 21.231C26.1601 18.0341 28.6537 15.2119 31.8751 15.2119C34.5796 15.2119 36.8596 17.2267 37.1927 19.9105L40.0321 42.7686C40.4295 45.9656 37.9358 48.7878 34.7145 48.7878ZM49.6844 48.7878C46.9799 48.7878 44.6999 46.7729 44.3668 44.0892L41.5274 21.231C41.1301 18.0341 43.6237 15.2119 46.8451 15.2119C49.5496 15.2119 51.8296 17.2267 52.1627 19.9105L55.0021 42.7686C55.3994 45.9656 52.9058 48.7878 49.6844 48.7878Z" fill="url(#paint0_linear_588_12305)"/>
<defs>
<linearGradient id="paint0_linear_588_12305" x1="61.7869" y1="59.0673" x2="5.25881" y2="5.3659" gradientUnits="userSpaceOnUse">
<stop offset="0.04" stop-color="#005148"/>
<stop offset="0.17" stop-color="#045346"/>
<stop offset="0.32" stop-color="#125C41"/>
<stop offset="0.48" stop-color="#286B38"/>
<stop offset="0.65" stop-color="#477F2C"/>
<stop offset="0.81" stop-color="#6F991D"/>
<stop offset="0.98" stop-color="#A0B80B"/>
<stop offset="1" stop-color="#A6BC09"/>
</linearGradient>
</defs>
</svg>
